<svg width="18" height="17" viewBox="0 0 18 17" xmlns="http://www.w3.org/2000/svg">
    <g fill="#4B587A" fill-rule="nonzero">
        <path d="M17.175 1.876H6.607a2.183 2.183 0 0 0-4.133 0H.824a.692.692 0 0 0-.693.69c0 .38.31.69.694.69h1.65a2.183 2.183 0 0 0 4.132 0h10.568a.692.692 0 0 0 .694-.69c0-.381-.31-.69-.694-.69zM4.541 3.353a.791.791 0 0 1-.793-.787c0-.435.356-.788.793-.788.437 0 .792.353.792.788a.791.791 0 0 1-.792.787zM17.175 7.787h-1.65a2.183 2.183 0 0 0-4.132 0H.825a.692.692 0 0 0-.694.69c0 .38.31.69.694.69h10.568a2.183 2.183 0 0 0 4.133 0h1.65a.692.692 0 0 0 .693-.69c0-.382-.31-.69-.694-.69zM13.46 9.264a.791.791 0 0 1-.792-.788c0-.434.355-.787.792-.787.437 0 .793.353.793.787a.791.791 0 0 1-.793.788zM17.175 13.698H9.58a2.183 2.183 0 0 0-4.133 0H.825a.692.692 0 0 0-.694.69c0 .38.31.69.694.69h4.622a2.183 2.183 0 0 0 4.133 0h7.595a.692.692 0 0 0 .694-.69c0-.382-.31-.69-.694-.69zm-9.661 1.477a.791.791 0 0 1-.793-.788c0-.434.356-.787.793-.787.437 0 .792.353.792.787a.791.791 0 0 1-.792.788z"/>
    </g>
</svg>
