<svg width="18" height="18" viewBox="0 0 18 18" xmlns="http://www.w3.org/2000/svg">
    <g fill="none" fill-rule="evenodd">
        <circle fill="#3697FF" cx="9" cy="9" r="9"/>
        <rect fill="#3697FF" width="18" height="18" rx="5"/>
        <path d="M13.713 6.422 7.8 12.46h-.005c-.075.076-.278.247-.513.247-.168 0-.358-.095-.517-.256L4.288 9.933a.181.181 0 0 1 0-.257l.788-.8a.173.173 0 0 1 .123-.054c.045 0 .089.018.124.054l1.964 1.996 5.395-5.524a.173.173 0 0 1 .124-.054.16.16 0 0 1 .124.054l.774.814a.18.18 0 0 1 .009.26z" fill="#FFF" fill-rule="nonzero"/>
    </g>
</svg>
