<svg width="15" height="15" viewBox="0 0 15 15" xmlns="http://www.w3.org/2000/svg">
    <path d="M13.389 1.758h-1.055v-.44A1.32 1.32 0 0 0 11.016 0a1.32 1.32 0 0 0-1.319 1.318v.44H5.303v-.44A1.32 1.32 0 0 0 3.984 0a1.32 1.32 0 0 0-1.318 1.318v.44H1.611C.723 1.758 0 2.48 0 3.369v10.02C0 14.277.723 15 1.611 15H13.39c.888 0 1.611-.723 1.611-1.611V3.369c0-.888-.723-1.611-1.611-1.611zm-2.813-.44a.44.44 0 0 1 .88 0v1.758a.44.44 0 0 1-.88 0V1.318zm-7.031 0a.44.44 0 0 1 .879 0v1.758a.44.44 0 0 1-.88 0V1.318zM.879 3.37c0-.404.328-.732.732-.732h1.055v.44a1.32 1.32 0 0 0 1.318 1.318 1.32 1.32 0 0 0 1.319-1.319v-.44h4.394v.44a1.32 1.32 0 0 0 1.319 1.319 1.32 1.32 0 0 0 1.318-1.319v-.44h1.055c.404 0 .732.33.732.733v1.963H.88V3.369zM14.12 13.39a.733.733 0 0 1-.732.732H1.61a.733.733 0 0 1-.732-.732V6.21H14.12v7.178z" fill="#4B587A" fill-rule="nonzero"/>
</svg>
